# xmcd CD database file
#
# Track frame offsets:
#	150
#	13299
#	33685
#	51052
#	68489
#	89894
#	109929
#	125121
#	144345
#	164880
#	181487
#	199596
#	214816
#	233047
#	248229
#	264399
#	281435
#	297078
#	311863
#
# Disc length: 4405 seconds
#
# Revision: 1
# Processed by: cddbd v1.4PL0 Copyright (c) Steve Scherf et al.
# Submitted via: CDex 1.40PlusFr
#
DISCID=2c113313
DTITLE=Shania Twain - UP! -  Country
DYEAR=2002
DGENRE=Country
TTITLE0=Up!
TTITLE1=I'm Gonna Getcha Good!
TTITLE2=She's Not Just A Pretty Face
TTITLE3=Juanita
TTITLE4=Forever And For Always
TTITLE5=Ain't No Particular Way
TTITLE6=It Only Hurts When I'm Breathing
TTITLE7=Nah!
TTITLE8=(Wanna Get To Know You) That's Good!
TTITLE9=C'est La Vie
TTITLE10=I'm Jealous
TTITLE11=Ka-Ching!
TTITLE12=Thank You Baby! (For Makin' Someday Come So Soon)
TTITLE13=Waiter! Bring Me Water!
TTITLE14=What A Way To Wanna Be!
TTITLE15=I Ain't Goin' Down
TTITLE16=I'm Not In The Mood (To Say No)!
TTITLE17=In My Car (I'll Be The Driver)
TTITLE18=When You Kiss Me
EXTD=YEAR: 2002 ID3G: 2
EXTT0=
EXTT1=
EXTT2=
EXTT3=
EXTT4=
EXTT5=
EXTT6=
EXTT7=
EXTT8=
EXTT9=
EXTT10=
EXTT11=
EXTT12=
EXTT13=
EXTT14=
EXTT15=
EXTT16=
EXTT17=
EXTT18=
PLAYORDER=
